<svg width="28" height="24" viewBox="0 0 28 24" fill="none" xmlns="http://www.w3.org/2000/svg">
<path d="M11.75 3H26.375M11.75 3C11.75 3.59674 11.5129 4.16903 11.091 4.59099C10.669 5.01295 10.0967 5.25 9.5 5.25C8.90326 5.25 8.33097 5.01295 7.90901 4.59099C7.48705 4.16903 7.25 3.59674 7.25 3M11.75 3C11.75 2.40326 11.5129 1.83097 11.091 1.40901C10.669 0.987053 10.0967 0.75 9.5 0.75C8.90326 0.75 8.33097 0.987053 7.90901 1.40901C7.48705 1.83097 7.25 2.40326 7.25 3M7.25 3H1.625M11.75 21H26.375M11.75 21C11.75 21.5967 11.5129 22.169 11.091 22.591C10.669 23.0129 10.0967 23.25 9.5 23.25C8.90326 23.25 8.33097 23.0129 7.90901 22.591C7.48705 22.169 7.25 21.5967 7.25 21M11.75 21C11.75 20.4033 11.5129 19.831 11.091 19.409C10.669 18.9871 10.0967 18.75 9.5 18.75C8.90326 18.75 8.33097 18.9871 7.90901 19.409C7.48705 19.831 7.25 20.4033 7.25 21M7.25 21H1.625M20.75 12H26.375M20.75 12C20.75 12.5967 20.5129 13.169 20.091 13.591C19.669 14.0129 19.0967 14.25 18.5 14.25C17.9033 14.25 17.331 14.0129 16.909 13.591C16.4871 13.169 16.25 12.5967 16.25 12M20.75 12C20.75 11.4033 20.5129 10.831 20.091 10.409C19.669 9.98705 19.0967 9.75 18.5 9.75C17.9033 9.75 17.331 9.98705 16.909 10.409C16.4871 10.831 16.25 11.4033 16.25 12M16.25 12H1.625" stroke="black" stroke-width="1.5" stroke-linecap="round" stroke-linejoin="round"/>
</svg>
